PathFileType	4	(X/Y/Z)	C:/Users/beibeiliu/ov580/test_trc\sequence.27_training_dense_left.trc
DataRate	CameraRate	NumFrames	NumMarkers	Units	OrigDataRate	OrigDataStartFrame	OrigNumFrames
120	120	7	19	mm	120	51	75
Frame#	Time	ThumbCMC			ThumbMCP			ThumbIP			ThumbTip			IndexMCP			IndexPIP			IndexTip			MiddleMCP			MiddlePIP			MiddleTip			RingMCP			RingPIP			RingTip			PinkyMCP			PinkyPIP			PinkyTip			BackHand1			BackHand2			BackHand3	
		X0	Y0	Z0	X1	Y1	Z1	X2	Y2	Z2	X3	Y3	Z3	X4	Y4	Z4	X5	Y5	Z5	X6	Y6	Z6	X7	Y7	Z7	X8	Y8	Z8	X9	Y9	Z9	X10	Y10	Z10	X11	Y11	Z11	X12	Y12	Z12	X13	Y13	Z13	X14	Y14	Z14	X15	Y15	Z15	X16	Y16	Z16	X17	Y17	Z17	X18	Y18	Z18	
50	0.416667	-199.338	52.7428	14.366	-191.596	70.7246	-10.0583	-171.902	81.3412	-18.3502	-146.867	90.8252	-17.12	-149.962	73.4376	-32.7053	-129.579	90.727	-39.7546	-120.848	109.649	-45.6304	-128.863	72.0916	-24.1719	-114.411	91.5943	-31.8703	-99.7775	111.157	-35.1254	-119.707	65.3055	-10.5653	-103.957	86.3233	-16.9304	-95.2703	107.266	-22.158	-112.959	59.8445	5.65765	-102.653	72.587	0.482368	-96.2632	88.6161	-8.84374	-147.603	30.6888	12.7215	-161.77	19.5262	27.1801	-173.97	32.2058	5.16094	
51	0.425	-198.967	47.9449	15.4594	-199.51	61.4085	-13.8498	-179.308	69.1403	-26.9619	-153.04	79.2949	-31.9449	-156.962	57.7156	-43.7568	-145.107	72.1848	-59.0948	-133.333	90.2008	-72.2586	-138.648	59.6789	-38.9972	-130.554	73.7181	-54.8233	-112.732	96.6766	-69.8382	-127.832	59.1117	-27.5782	-117.727	75.9463	-42.8586	-108.134	91.8807	-51.4079	-115.574	56.0908	-6.91694	-109.727	71.0398	-23.9372	-108.063	84.4718	-36.4965	-146.16	31.6715	8.36992	-154.592	22.9915	31.1369	-174.446	26.9842	5.61788	
52	0.433333	-196.799	40.1943	15.4995	-203.157	47.3782	-11.0211	-184.393	50.4962	-37.0012	-162.389	59.1063	-41.2242	-166.334	34.0313	-44.7401	-157.136	41.1075	-65.4246	-147.339	52.339	-85.9735	-145.941	37.0525	-48.8215	-142.849	43.4426	-66.8722	-133.475	55.1406	-90.4541	-133.042	40.0883	-32.673	-129.364	48.6821	-56.0513	-121.195	59.5708	-74.2769	-122.717	43.5622	-18.4622	-119.289	51.1662	-38.998	-113.529	57.7929	-57.9961	-148.968	25.6207	6.49193	-154.182	19.7512	34.8954	-176.736	18.9071	8.02015	
53	0.441667	-205.989	35.318	19.56	-210.152	34.3449	-13.39	-195.74	33.9355	-36.162	-174.759	38.6674	-42.9275	-180.936	10.9564	-40.1412	-173.616	10.0775	-64.089	-168.124	10.8024	-83.9213	-164.478	10.3282	-47.6729	-156.914	9.65183	-69.3219	-148.103	10.004	-91.8073	-150.219	15.5508	-36.644	-142.417	16.9151	-56.3429	-139.788	17.3202	-76.2596	-137.126	22.1782	-21.2225	-134.622	22.7968	-42.1369	-130.639	21.3539	-60.0814	-155.029	12.6342	13.3709	-161.477	14.0742	35.2512	-186.29	9.67799	13.5211	
54	0.45	-212.867	30.0239	18.931	-218.432	29.9413	-7.70526	-206.176	23.3738	-31.5875	-184.946	23.2488	-40.6091	-195.991	-6.13748	-32.4352	-190.524	-15.9839	-56.5782	-186.718	-20.7392	-73.652	-176.662	-11.4081	-36.2489	-175.949	-19.3415	-60.5547	-170.74	-28.5778	-82.7135	-160.755	-5.37526	-28.3755	-156.7	-13.4313	-51.6489	-158.086	-17.7789	-69.9267	-149.219	0.982092	-19.8205	-148.349	-3.68702	-37.2147	-148.34	-8.35922	-55.9953	-166.47	1.55275	15.5031	-168.597	10.4935	39.924	-196.513	6.29998	20.9169	
55	0.458333	-213.544	34.2158	21.8857	-222.311	32.4822	-8.34793	-210.657	22.4319	-26.5321	-190.821	14.9062	-42.1698	-211.36	-10.707	-22.4914	-209.811	-24.7781	-44.0396	-208.66	-36.9203	-62.3238	-198.155	-21.7559	-27.5977	-200.262	-35.1924	-48.1956	-195.557	-48.4791	-64.8696	-181.751	-18.2676	-19.2908	-180.214	-34.1103	-42.8563	-182.16	-41.512	-58.3079	-163.461	-15.6139	-11.684	-167.561	-22.0933	-27.4098	-166.54	-33.3104	-49.41	-181.475	-3.25854	19.9486	-182.144	4.79145	41.6649	-206.13	5.68238	29.4506	
56	0.466667	-213.65	41.4143	22.2782	-221.977	42.3523	-6.76451	-216.075	28.3847	-27.9329	-198.786	15.5587	-40.0776	-227.303	-5.84026	-19.2052	-230.973	-19.0514	-36.9751	-234.623	-32.0105	-52.3993	-216.476	-21.8213	-22.0623	-220.919	-36.261	-40.288	-224.036	-53.6628	-56.7419	-198.2	-21.8094	-13.0879	-203.944	-39.1462	-33.9904	-212.114	-48.3529	-50.4056	-181.079	-20.151	-3.72157	-187.408	-30.3128	-19.0551	-192.182	-43.6356	-37.8287	-191.063	-9.4534	21.5795	-187.545	3.22803	48.3115	-213.779	13.0719	27.9774	
